<svg xmlns="http://www.w3.org/2000/svg" width="90.75" viewBox="0 0 90.75 30" height="30" version="1.0"><defs><clipPath id="a"><path d="M 1.34375 0 L 89.164062 0 L 89.164062 29.03125 L 1.34375 29.03125 Z M 1.34375 0"/></clipPath><clipPath id="b"><path d="M 20 18.886719 L 36 18.886719 L 36 29 L 20 29 Z M 20 18.886719"/></clipPath><clipPath id="c"><path d="M 4.253906 23 L 27 23 L 27 29.03125 L 4.253906 29.03125 Z M 4.253906 23"/></clipPath><clipPath id="d"><path d="M 4.253906 22 L 33 22 L 33 29.03125 L 4.253906 29.03125 Z M 4.253906 22"/></clipPath><clipPath id="e"><path d="M 35 18.886719 L 38.460938 18.886719 L 38.460938 23 L 35 23 Z M 35 18.886719"/></clipPath></defs><g clip-path="url(#a)" fill="#FFF"><path d="M 1.34375 0 L 89.40625 0 L 89.40625 36.390625 L 1.34375 36.390625 Z M 1.34375 0"/><path d="M 1.34375 0 L 89.40625 0 L 89.40625 29.113281 L 1.34375 29.113281 Z M 1.34375 0"/><path d="M 1.34375 0 L 89.40625 0 L 89.40625 29.113281 L 1.34375 29.113281 Z M 1.34375 0"/></g><g fill="#0E0D0B"><g><g><path d="M 7.03125 -6.625 L 4.765625 -6.625 L 4.765625 0 L 2.671875 0 L 2.671875 -6.625 L 0.40625 -6.625 L 0.40625 -8.71875 L 7.03125 -8.71875 Z M 7.03125 -6.625" transform="translate(1.951 18.129)"/></g></g></g><g><g><g><path d="M 7.046875 -3.15625 C 7.054688 -2.96875 7.054688 -2.851562 7.046875 -2.8125 L 2.015625 -2.828125 C 2.085938 -2.617188 2.21875 -2.421875 2.40625 -2.234375 C 2.75 -1.910156 3.148438 -1.75 3.609375 -1.75 C 4.085938 -1.757812 4.488281 -1.925781 4.8125 -2.25 L 4.859375 -2.3125 L 6.609375 -1.75 C 6.222656 -1.15625 5.820312 -0.726562 5.40625 -0.46875 C 4.925781 -0.164062 4.332031 -0.0078125 3.625 0 C 2.675781 0.0078125 1.863281 -0.316406 1.1875 -0.984375 C 0.5 -1.660156 0.148438 -2.476562 0.140625 -3.4375 C 0.140625 -4.382812 0.472656 -5.195312 1.140625 -5.875 C 1.804688 -6.550781 2.617188 -6.894531 3.578125 -6.90625 C 4.523438 -6.914062 5.335938 -6.582031 6.015625 -5.90625 C 6.691406 -5.238281 7.035156 -4.425781 7.046875 -3.46875 Z M 3.59375 -5.140625 C 3.113281 -5.140625 2.710938 -4.976562 2.390625 -4.65625 C 2.210938 -4.46875 2.09375 -4.28125 2.03125 -4.09375 L 5.171875 -4.09375 C 5.097656 -4.28125 4.972656 -4.472656 4.796875 -4.671875 C 4.460938 -4.984375 4.0625 -5.140625 3.59375 -5.140625 Z M 3.59375 -5.140625" transform="translate(9.252 18.129)"/></g></g></g><g><g><g><path d="M 3.125 -9.34375 L 3.125 -7.765625 L 1.25 -7.765625 L 1.25 -9.34375 Z M 3.125 0 C 3.125 0.738281 2.863281 1.375 2.34375 1.90625 C 1.820312 2.425781 1.1875 2.6875 0.4375 2.6875 L 0.40625 2.6875 L 0.40625 0.796875 L 0.4375 0.796875 C 0.5625 0.796875 0.679688 0.769531 0.796875 0.71875 C 0.847656 0.695312 0.890625 0.671875 0.921875 0.640625 L 0.984375 0.609375 L 1.015625 0.578125 L 1.078125 0.484375 C 1.109375 0.441406 1.140625 0.398438 1.171875 0.359375 C 1.222656 0.242188 1.25 0.125 1.25 0 L 1.25 -6.890625 L 3.125 -6.890625 Z M 3.125 0" transform="translate(16.446 18.129)"/></g></g></g><g><g><g><path d="M 5.359375 -6.9375 L 7.234375 -6.9375 L 7.234375 0 L 5.359375 0 L 5.359375 -0.78125 C 4.972656 -0.28125 4.394531 -0.03125 3.625 -0.03125 C 2.675781 -0.0195312 1.863281 -0.347656 1.1875 -1.015625 C 0.5 -1.691406 0.148438 -2.503906 0.140625 -3.453125 C 0.140625 -4.398438 0.472656 -5.21875 1.140625 -5.90625 C 1.804688 -6.582031 2.617188 -6.925781 3.578125 -6.9375 C 4.367188 -6.9375 4.960938 -6.679688 5.359375 -6.171875 Z M 4.796875 -2.28125 C 5.128906 -2.613281 5.296875 -3.015625 5.296875 -3.484375 C 5.296875 -3.960938 5.125 -4.363281 4.78125 -4.6875 C 4.445312 -5.03125 4.050781 -5.191406 3.59375 -5.171875 C 3.113281 -5.171875 2.710938 -5.003906 2.390625 -4.671875 C 2.054688 -4.347656 1.890625 -3.945312 1.890625 -3.46875 C 1.890625 -3.007812 2.0625 -2.609375 2.40625 -2.265625 C 2.726562 -1.929688 3.128906 -1.765625 3.609375 -1.765625 C 4.085938 -1.785156 4.484375 -1.957031 4.796875 -2.28125 Z M 4.796875 -2.28125" transform="translate(19.969 18.129)"/></g></g></g><g><g><g><path d="M 3.1875 0 C 2.726562 0 2.320312 -0.0703125 1.96875 -0.21875 C 1.695312 -0.3125 1.410156 -0.492188 1.109375 -0.765625 C 0.597656 -1.234375 0.367188 -1.832031 0.421875 -2.5625 L 0.421875 -2.703125 L 1.921875 -2.6875 L 2.03125 -2.6875 L 2.03125 -2.578125 C 2.039062 -2.347656 2.09375 -2.164062 2.1875 -2.03125 C 2.332031 -1.769531 2.664062 -1.640625 3.1875 -1.640625 C 3.613281 -1.640625 3.921875 -1.6875 4.109375 -1.78125 C 4.210938 -1.820312 4.28125 -1.878906 4.3125 -1.953125 C 4.332031 -1.984375 4.34375 -2.007812 4.34375 -2.03125 L 4.359375 -2.109375 C 4.359375 -2.296875 4.210938 -2.445312 3.921875 -2.5625 C 3.796875 -2.601562 3.660156 -2.640625 3.515625 -2.671875 C 3.398438 -2.691406 3.269531 -2.710938 3.125 -2.734375 C 2.582031 -2.785156 2.132812 -2.894531 1.78125 -3.0625 C 1.425781 -3.195312 1.128906 -3.390625 0.890625 -3.640625 C 0.578125 -4.015625 0.421875 -4.4375 0.421875 -4.90625 C 0.421875 -5.195312 0.472656 -5.46875 0.578125 -5.71875 C 0.660156 -5.914062 0.765625 -6.09375 0.890625 -6.25 C 1.378906 -6.800781 2.15625 -7.078125 3.21875 -7.078125 C 3.851562 -7.078125 4.390625 -6.953125 4.828125 -6.703125 C 5.160156 -6.515625 5.429688 -6.257812 5.640625 -5.9375 C 5.804688 -5.695312 5.921875 -5.414062 5.984375 -5.09375 C 5.992188 -4.988281 6.003906 -4.882812 6.015625 -4.78125 L 6.015625 -4.5 L 4.390625 -4.5 L 4.390625 -4.703125 C 4.390625 -4.742188 4.390625 -4.78125 4.390625 -4.8125 C 4.359375 -4.90625 4.320312 -4.984375 4.28125 -5.046875 C 4.082031 -5.316406 3.726562 -5.453125 3.21875 -5.453125 C 2.46875 -5.453125 2.09375 -5.296875 2.09375 -4.984375 C 2.09375 -4.828125 2.179688 -4.695312 2.359375 -4.59375 C 2.546875 -4.476562 2.863281 -4.394531 3.3125 -4.34375 C 4.34375 -4.238281 5.085938 -3.910156 5.546875 -3.359375 C 5.859375 -2.992188 6.015625 -2.578125 6.015625 -2.109375 L 6.015625 -2.015625 L 6 -1.890625 C 6 -1.773438 5.988281 -1.664062 5.96875 -1.5625 C 5.894531 -1.28125 5.757812 -1.023438 5.5625 -0.796875 C 5.34375 -0.535156 5.03125 -0.335938 4.625 -0.203125 C 4.21875 -0.0664062 3.738281 0 3.1875 0 Z M 3.1875 0" transform="translate(27.605 18.129)"/></g></g></g><g fill="#0E0D0B"><g><g><path d="M 7.78125 -1.09375 C 6.9375 -0.394531 5.96875 -0.046875 4.875 -0.046875 C 3.644531 -0.046875 2.59375 -0.484375 1.71875 -1.359375 C 0.84375 -2.234375 0.40625 -3.285156 0.40625 -4.515625 C 0.40625 -5.753906 0.84375 -6.8125 1.71875 -7.6875 C 2.59375 -8.570312 3.644531 -9.015625 4.875 -9.015625 C 5.976562 -9.015625 6.945312 -8.65625 7.78125 -7.9375 L 6.453125 -6.609375 C 5.992188 -6.953125 5.46875 -7.125 4.875 -7.125 C 4.164062 -7.125 3.554688 -6.875 3.046875 -6.375 C 2.535156 -5.863281 2.28125 -5.242188 2.28125 -4.515625 C 2.28125 -3.804688 2.535156 -3.195312 3.046875 -2.6875 C 3.554688 -2.175781 4.164062 -1.921875 4.875 -1.921875 C 5.46875 -1.921875 5.992188 -2.09375 6.453125 -2.4375 Z M 7.78125 -1.09375" transform="translate(37.5 18.129)"/></g></g></g><g><g><g><path d="M 2.28125 -5.875 C 2.425781 -6.300781 2.679688 -6.597656 3.046875 -6.765625 C 3.390625 -6.941406 3.910156 -7.03125 4.609375 -7.03125 L 4.609375 -5.109375 C 3.929688 -5.109375 3.363281 -4.875 2.90625 -4.40625 C 2.488281 -4 2.28125 -3.550781 2.28125 -3.0625 L 2.28125 0 L 0.40625 0 L 0.40625 -6.90625 L 2.28125 -6.90625 Z M 2.28125 -5.875" transform="translate(46.086 18.129)"/></g></g></g><g><g><g><path d="M 7.046875 -3.15625 C 7.054688 -2.96875 7.054688 -2.851562 7.046875 -2.8125 L 2.015625 -2.828125 C 2.085938 -2.617188 2.21875 -2.421875 2.40625 -2.234375 C 2.75 -1.910156 3.148438 -1.75 3.609375 -1.75 C 4.085938 -1.757812 4.488281 -1.925781 4.8125 -2.25 L 4.859375 -2.3125 L 6.609375 -1.75 C 6.222656 -1.15625 5.820312 -0.726562 5.40625 -0.46875 C 4.925781 -0.164062 4.332031 -0.0078125 3.625 0 C 2.675781 0.0078125 1.863281 -0.316406 1.1875 -0.984375 C 0.5 -1.660156 0.148438 -2.476562 0.140625 -3.4375 C 0.140625 -4.382812 0.472656 -5.195312 1.140625 -5.875 C 1.804688 -6.550781 2.617188 -6.894531 3.578125 -6.90625 C 4.523438 -6.914062 5.335938 -6.582031 6.015625 -5.90625 C 6.691406 -5.238281 7.035156 -4.425781 7.046875 -3.46875 Z M 3.59375 -5.140625 C 3.113281 -5.140625 2.710938 -4.976562 2.390625 -4.65625 C 2.210938 -4.46875 2.09375 -4.28125 2.03125 -4.09375 L 5.171875 -4.09375 C 5.097656 -4.28125 4.972656 -4.472656 4.796875 -4.671875 C 4.460938 -4.984375 4.0625 -5.140625 3.59375 -5.140625 Z M 3.59375 -5.140625" transform="translate(50.895 18.129)"/></g></g></g><g><g><g><path d="M 5.359375 -6.9375 L 7.234375 -6.9375 L 7.234375 0 L 5.359375 0 L 5.359375 -0.78125 C 4.972656 -0.28125 4.394531 -0.03125 3.625 -0.03125 C 2.675781 -0.0195312 1.863281 -0.347656 1.1875 -1.015625 C 0.5 -1.691406 0.148438 -2.503906 0.140625 -3.453125 C 0.140625 -4.398438 0.472656 -5.21875 1.140625 -5.90625 C 1.804688 -6.582031 2.617188 -6.925781 3.578125 -6.9375 C 4.367188 -6.9375 4.960938 -6.679688 5.359375 -6.171875 Z M 4.796875 -2.28125 C 5.128906 -2.613281 5.296875 -3.015625 5.296875 -3.484375 C 5.296875 -3.960938 5.125 -4.363281 4.78125 -4.6875 C 4.445312 -5.03125 4.050781 -5.191406 3.59375 -5.171875 C 3.113281 -5.171875 2.710938 -5.003906 2.390625 -4.671875 C 2.054688 -4.347656 1.890625 -3.945312 1.890625 -3.46875 C 1.890625 -3.007812 2.0625 -2.609375 2.40625 -2.265625 C 2.726562 -1.929688 3.128906 -1.765625 3.609375 -1.765625 C 4.085938 -1.785156 4.484375 -1.957031 4.796875 -2.28125 Z M 4.796875 -2.28125" transform="translate(58.089 18.129)"/></g></g></g><g><g><g><path d="M 5.375 -6.90625 L 5.375 -5.03125 L 3.828125 -5.03125 L 3.828125 0 L 1.953125 0 L 1.953125 -5.03125 L 0.40625 -5.03125 L 0.40625 -6.90625 L 1.953125 -6.90625 L 1.953125 -9.3125 L 3.828125 -9.3125 L 3.828125 -6.90625 Z M 5.375 -6.90625" transform="translate(65.724 18.129)"/></g></g></g><g><g><g><path d="M 2.265625 -9.34375 L 2.265625 -7.765625 L 0.40625 -7.765625 L 0.40625 -9.34375 Z M 2.28125 -6.890625 L 2.28125 0 L 0.40625 0 L 0.40625 -6.890625 Z M 2.28125 -6.890625" transform="translate(71.498 18.129)"/></g></g></g><g><g><g><path d="M 3.578125 -6.90625 C 4.535156 -6.914062 5.347656 -6.582031 6.015625 -5.90625 C 6.691406 -5.226562 7.03125 -4.414062 7.03125 -3.46875 C 7.039062 -2.507812 6.710938 -1.695312 6.046875 -1.03125 C 5.378906 -0.351562 4.570312 -0.0078125 3.625 0 C 2.664062 0.0078125 1.847656 -0.316406 1.171875 -0.984375 C 0.484375 -1.660156 0.140625 -2.476562 0.140625 -3.4375 C 0.140625 -4.382812 0.472656 -5.195312 1.140625 -5.875 C 1.804688 -6.550781 2.617188 -6.894531 3.578125 -6.90625 Z M 4.796875 -2.25 C 5.128906 -2.582031 5.296875 -2.984375 5.296875 -3.453125 C 5.296875 -3.921875 5.125 -4.328125 4.78125 -4.671875 C 4.445312 -4.984375 4.046875 -5.140625 3.578125 -5.140625 C 3.109375 -5.140625 2.710938 -4.976562 2.390625 -4.65625 C 2.054688 -4.300781 1.890625 -3.898438 1.890625 -3.453125 C 1.890625 -2.984375 2.0625 -2.578125 2.40625 -2.234375 C 2.726562 -1.910156 3.128906 -1.75 3.609375 -1.75 C 4.085938 -1.757812 4.484375 -1.925781 4.796875 -2.25 Z M 4.796875 -2.25" transform="translate(74.177 18.129)"/></g></g></g><g><g><g><path d="M 3.828125 -6.875 C 4.816406 -6.957031 5.632812 -6.703125 6.28125 -6.109375 C 6.96875 -5.472656 7.3125 -4.585938 7.3125 -3.453125 L 7.3125 0 L 5.5625 0 L 5.5625 -3.40625 L 5.546875 -3.40625 L 5.546875 -3.4375 C 5.546875 -3.90625 5.378906 -4.304688 5.046875 -4.640625 C 4.722656 -4.972656 4.320312 -5.140625 3.84375 -5.140625 C 3.363281 -5.117188 2.960938 -4.945312 2.640625 -4.625 C 2.296875 -4.28125 2.132812 -3.878906 2.15625 -3.421875 L 2.15625 -3.40625 L 2.140625 -3.40625 L 2.140625 0 L 0.265625 0 L 0.265625 -6.9375 L 2.140625 -6.9375 L 2.140625 -6.03125 C 2.566406 -6.53125 3.128906 -6.8125 3.828125 -6.875 Z M 3.828125 -6.875" transform="translate(81.358 18.129)"/></g></g></g><g clip-path="url(#b)"><path d="M 26.5 28.523438 C 26.476562 28.523438 26.453125 28.523438 26.433594 28.535156 C 26.433594 28.453125 26.421875 28.386719 26.421875 28.304688 C 26.433594 28.304688 26.453125 28.304688 26.464844 28.304688 C 29.734375 27.871094 32.660156 24.714844 35.179688 18.902344 L 35.386719 18.996094 C 32.84375 24.878906 29.859375 28.085938 26.5 28.523438 Z M 32.140625 28.511719 L 20.710938 28.511719 L 20.710938 28.707031 L 32.140625 28.707031 Z M 32.140625 28.511719" fill-opacity=".498"/></g><g clip-path="url(#c)"><path fill="#E13B76" d="M 26.433594 28.304688 C 26.433594 28.386719 26.441406 28.453125 26.441406 28.535156 C 23.839844 28.855469 21.625 27.46875 19.492188 26.128906 C 17.316406 24.761719 15.054688 23.339844 12.394531 23.753906 C 9.527344 24.1875 7.015625 26.550781 4.917969 30.769531 L 4.710938 30.667969 C 6.84375 26.378906 9.414062 23.984375 12.351562 23.523438 C 15.101562 23.101562 17.394531 24.542969 19.609375 25.933594 C 21.71875 27.25 23.898438 28.613281 26.433594 28.304688 Z M 26.433594 28.304688"/></g><g clip-path="url(#d)"><path fill="#FFFCF0" d="M 5.320312 30.1875 L 4.3125 30.1875 L 4.3125 31.195312 L 5.320312 31.195312 Z M 12.328125 22.996094 C 12.027344 22.996094 11.777344 23.238281 11.777344 23.546875 C 11.777344 23.84375 12.015625 24.097656 12.328125 24.097656 C 12.625 24.097656 12.878906 23.855469 12.878906 23.546875 C 12.867188 23.238281 12.625 22.996094 12.328125 22.996094 Z M 32.140625 27.984375 C 31.84375 27.984375 31.59375 28.226562 31.59375 28.535156 C 31.59375 28.832031 31.832031 29.085938 32.140625 29.085938 C 32.441406 29.085938 32.691406 28.84375 32.691406 28.535156 C 32.691406 28.226562 32.441406 27.984375 32.140625 27.984375 Z M 20.699219 27.972656 C 20.398438 27.972656 20.148438 28.214844 20.148438 28.523438 C 20.148438 28.832031 20.386719 29.074219 20.699219 29.074219 C 21.007812 29.074219 21.25 28.832031 21.25 28.523438 C 21.25 28.214844 20.996094 27.972656 20.699219 27.972656 Z M 25.996094 28.960938 L 26.890625 28.960938 L 26.890625 28.066406 L 25.996094 28.066406 Z M 25.996094 28.960938"/><path fill="#5548E4" d="M 5.378906 31.253906 L 4.253906 31.253906 L 4.253906 30.128906 L 5.378906 30.128906 Z M 4.367188 31.136719 L 5.261719 31.136719 L 5.261719 30.242188 L 4.367188 30.242188 Z M 32.140625 29.132812 C 31.808594 29.132812 31.535156 28.855469 31.535156 28.523438 C 31.535156 28.191406 31.808594 27.914062 32.140625 27.914062 C 32.476562 27.914062 32.75 28.191406 32.75 28.523438 C 32.75 28.855469 32.476562 29.132812 32.140625 29.132812 Z M 32.140625 28.042969 C 31.867188 28.042969 31.648438 28.257812 31.648438 28.535156 C 31.648438 28.808594 31.867188 29.027344 32.140625 29.027344 C 32.417969 29.027344 32.636719 28.808594 32.636719 28.535156 C 32.636719 28.257812 32.40625 28.042969 32.140625 28.042969 Z M 20.699219 29.121094 C 20.367188 29.121094 20.089844 28.84375 20.089844 28.511719 C 20.089844 28.179688 20.367188 27.902344 20.699219 27.902344 C 21.03125 27.902344 21.304688 28.179688 21.304688 28.511719 C 21.304688 28.84375 21.03125 29.121094 20.699219 29.121094 Z M 20.699219 28.03125 C 20.421875 28.03125 20.203125 28.25 20.203125 28.523438 C 20.203125 28.796875 20.421875 29.015625 20.699219 29.015625 C 20.972656 29.015625 21.191406 28.796875 21.191406 28.523438 C 21.191406 28.25 20.972656 28.03125 20.699219 28.03125 Z M 12.328125 24.144531 C 11.996094 24.144531 11.71875 23.867188 11.71875 23.535156 C 11.71875 23.203125 11.996094 22.929688 12.328125 22.929688 C 12.660156 22.929688 12.933594 23.203125 12.933594 23.535156 C 12.921875 23.867188 12.660156 24.144531 12.328125 24.144531 Z M 12.328125 23.054688 C 12.050781 23.054688 11.832031 23.273438 11.832031 23.546875 C 11.832031 23.824219 12.050781 24.039062 12.328125 24.039062 C 12.601562 24.039062 12.820312 23.824219 12.820312 23.546875 C 12.820312 23.273438 12.589844 23.054688 12.328125 23.054688 Z M 26.9375 29.015625 L 25.925781 29.015625 L 25.925781 28.007812 L 26.9375 28.007812 Z M 26.054688 28.902344 L 26.832031 28.902344 L 26.832031 28.121094 L 26.054688 28.121094 Z M 26.054688 28.902344"/></g><g clip-path="url(#e)"><path d="M 37.257812 19.695312 C 37.476562 20.085938 37.679688 20.472656 37.898438 20.863281 C 37.625 21.128906 37.335938 21.378906 37.0625 21.644531 C 36.695312 21.4375 36.328125 21.230469 35.972656 21.023438 C 35.695312 20.347656 35.421875 19.683594 35.148438 19.007812 C 35.535156 19.417969 35.914062 19.820312 36.304688 20.234375 C 36.304688 20.3125 36.304688 20.40625 36.304688 20.484375 C 36.476562 20.496094 36.625 20.496094 36.796875 20.507812 C 36.796875 20.359375 36.796875 20.222656 36.796875 20.074219 C 36.683594 20.0625 36.582031 20.050781 36.464844 20.039062 C 36.074219 19.660156 35.6875 19.269531 35.296875 18.890625 C 35.949219 19.167969 36.601562 19.429688 37.257812 19.695312 Z M 37.175781 21.851562 C 37.300781 21.988281 37.441406 22.113281 37.566406 22.25 C 37.863281 21.953125 38.164062 21.667969 38.460938 21.367188 C 38.335938 21.242188 38.207031 21.117188 38.082031 21 C 37.773438 21.277344 37.476562 21.5625 37.175781 21.851562 Z M 37.175781 21.851562"/></g></svg>